<?xml version="1.0" encoding="utf-8"?>
<!-- Generator: Adobe Illustrator 24.2.3, SVG Export Plug-In . SVG Version: 6.00 Build 0)  -->
<svg version="1.1" id="GrabExpress" xmlns="http://www.w3.org/2000/svg" xmlns:xlink="http://www.w3.org/1999/xlink" x="0px"
	 y="0px" width="265.3px" height="368.5px" viewBox="0 0 265.3 368.5" style="enable-background:new 0 0 265.3 368.5;"
	 xml:space="preserve">
<style type="text/css">
	.st0{fill:#00913D;}
	.st1{fill:#FFFFFF;}
	.st2{fill:#009A3C;}
</style>
<ellipse transform="matrix(0.7071 -0.7071 0.7071 0.7071 -54.9556 132.6742)" class="st0" cx="132.7" cy="132.7" rx="132.7" ry="132.7"/>
<path class="st1" d="M58,180.3c-1.4-0.8-2.7-1.4-4.2-1.7c-1.7-0.3-3.3-0.4-5,0.1c-2.6,0.7-4.4,2.3-5.2,4.9c-0.7,2.2-0.6,4.4,0.1,6.6
	c0.9,2.9,3.1,4.4,6,4.7c1.4,0.1,2.7,0,4-0.4c0.4-0.1,0.6-0.3,0.6-0.8c0-1.4,0-2.7,0-4.1c0-0.5-0.1-0.7-0.7-0.7c-1.1,0-2.3,0-3.4,0
	c-0.6,0-0.7-0.2-0.7-0.7c0-0.7,0-1.5,0-2.2c0-0.4,0.1-0.7,0.6-0.7c2.8,0,5.6,0,8.3,0c0.5,0,0.6,0.2,0.6,0.7c0,1.2,0,2.5,0,3.7
	c0,2,0,3.9,0,5.9c0,0.5-0.1,0.8-0.6,1.1c-1.7,1-3.4,1.7-5.4,2c-2.5,0.3-5,0.2-7.4-0.6c-4.3-1.5-6.7-4.7-7.4-9.1
	c-0.3-2-0.3-4,0.3-5.9c1-3.7,3.4-6.3,6.9-7.6c3.8-1.4,7.7-1.3,11.5,0.1c1,0.4,1,0.4,1,1.5C58.1,178.1,58.2,179.1,58,180.3z"/>
<path class="st1" d="M66.9,183.1c0.5-0.5,0.8-1,1.2-1.3c1.2-1.2,2.7-1.6,4.4-1.5c0.5,0,0.7,0.2,0.7,0.8c0,1.2,0,2.3,0,3.6
	c-1.3-0.1-2.4-0.2-3.6,0.1c-0.5,0.1-0.9,0.3-1.3,0.5c-0.9,0.5-1.3,1.1-1.3,2.2c0.1,3.4,0,6.8,0,10.2c0,0.9,0,0.9-0.9,0.9
	c-0.8,0-1.6,0-2.5,0c-1.2,0-1.1,0.1-1.1-1.1c0-3.8,0-7.6,0-11.3c0-1.6,0-3.1,0-4.7c0-0.7,0-0.7,0.8-0.7c0.9,0,1.7,0,2.6,0
	c0.4,0,0.6,0.1,0.6,0.5C66.7,181.7,66.8,182.3,66.9,183.1z"/>
<path class="st1" d="M89.2,186.9c0-0.4,0-0.8-0.1-1.2c-0.3-2.9-2-4.8-4.8-5.4c-1.8-0.4-3.6-0.3-5.4-0.1c-1,0.1-2,0.4-3,0.9
	c-0.3,0.1-0.5,0.2-0.5,0.6c0,1.1-0.1,2.1,0,3.2c0.1,0,0.2,0,0.3,0c0.2-0.1,0.4-0.2,0.6-0.3c1.8-0.8,3.6-1.1,5.5-0.9
	c1.9,0.2,2.9,1.2,3,3.1c0,0.4-0.1,0.6-0.5,0.6c-0.9,0.1-1.8,0.2-2.6,0.4c-1.7,0.2-3.3,0.5-4.8,1.2c-2,0.9-2.9,2.6-2.8,4.7
	c0.1,2.2,1.1,3.8,3.2,4.5c2.8,0.9,5.5,0.8,7.7-1.6c0,0,0.1,0,0.2,0c0.2,0.4,0.2,0.7,0.3,1.1c0,0.4,0.2,0.5,0.6,0.5
	c0.9,0,1.7,0,2.6,0c0.7,0,0.8,0,0.8-0.8C89.2,194.1,89.2,190.5,89.2,186.9L89.2,186.9z M83.4,195.1L83.4,195.1
	c-1,0.6-2.2,0.7-3.3,0.4c-1-0.2-1.6-0.9-1.7-1.8c-0.1-1.1,0.2-1.9,1.3-2.3c0.7-0.3,1.4-0.5,2.2-0.6c0.8-0.1,1.6-0.2,2.4-0.4
	c0.4-0.1,0.6,0.1,0.6,0.5c0,0.4,0,0.9,0,1.3c0,0.2,0,0.4,0,0.5C85,194,84.3,194.6,83.4,195.1z"/>
<path class="st1" d="M109.3,184.6c-1-2.4-2.8-3.9-5.4-4.3c-2.4-0.4-4.6,0-6.4,1.8c-0.1,0.1-0.1,0.2-0.3,0.1c-0.1-0.3-0.1-0.6-0.1-1
	c0-2.3,0-4.6,0-7c0-1.1,0.1-1-1-0.8c-0.9,0.2-1.8,0.4-2.7,0.6c-0.6,0.1-0.8,0.3-0.8,0.9c0,7.6,0,15.3,0,22.9c0,0.5,0.1,0.8,0.7,0.7
	c0.7,0,1.5,0,2.2,0c0.5,0,0.8-0.1,0.9-0.7c0.1-0.4,0-0.8,0.4-1.1c0.4,0.4,0.8,0.7,1.3,1c0.5,0.3,1,0.6,1.5,0.8c3.1,1,7.6,0.2,9.5-4
	C110.6,191.2,110.6,187.9,109.3,184.6L109.3,184.6z M105.3,192L105.3,192c-1,3.4-5.1,4.6-7.8,2.3c-0.3-0.3-0.4-0.6-0.4-0.9
	c0-1.2,0-2.4,0-3.6c0-1.2,0-2.4,0-3.6c0-0.5,0.1-0.8,0.5-1.1c1.6-1.3,3.5-1.6,5.4-0.9c1.5,0.6,2.1,1.8,2.5,3.3
	C105.8,188.9,105.8,190.4,105.3,192z"/>
<path class="st1" d="M113.4,186.6c0-3.5,0-7,0-10.5c0-0.2,0-0.5,0-0.7c0-0.4,0.2-0.5,0.5-0.5c0.1,0,0.2,0,0.3,0c4.1,0,8.2,0,12.3,0
	c0.9,0,0.9,0,0.9,0.9c0,0.7,0,1.5,0,2.2c0,0.5-0.2,0.7-0.7,0.7c-2.4,0-4.7,0-7.1,0c-1.5,0-1.5,0-1.5,1.5c0,1.2,0,2.4,0,3.5
	c0,0.7,0,0.8,0.8,0.8c2.1,0,4.2,0,6.3,0c0.9,0,0.9,0,0.9,0.9c0,0.7,0,1.4,0,2c0,0.7,0,0.7-0.8,0.7c-2,0-4,0-6,0c-0.2,0-0.4,0-0.6,0
	c-0.4,0-0.6,0.1-0.6,0.6c0,1.8,0,3.6,0,5.5c0,0.6,0.4,0.6,0.8,0.6c2.4,0,4.8,0,7.3,0c1.5,0,1.3-0.2,1.3,1.3c0,0.6,0,1.1,0,1.7
	c0.1,0.6-0.2,0.7-0.7,0.7c-4.2,0-8.5,0-12.7,0c-0.7,0-0.7,0-0.7-0.8C113.4,193.9,113.4,190.3,113.4,186.6z"/>
<path class="st1" d="M138.2,186c0.6-0.7,1-1.5,1.5-2.3c0.6-0.9,1.1-1.7,1.7-2.6c0.2-0.3,0.3-0.6,0.7-0.6c1.3,0,2.5,0,3.8,0
	c0,0.5-0.3,0.7-0.5,1c-1.5,2.3-3,4.6-4.6,6.9c-0.3,0.5-0.4,0.9,0,1.4c1.7,2.5,3.4,5,5,7.5c0.2,0.3,0.5,0.5,0.5,0.9
	c-0.2,0.3-0.4,0.2-0.7,0.2c-1,0-1.9-0.1-2.9,0c-1,0.1-1.5-0.3-2-1.1c-1-1.7-2-3.3-3.1-4.9c-0.4,0.2-0.5,0.5-0.7,0.8
	c-0.9,1.5-1.9,2.9-2.8,4.4c-0.3,0.6-0.7,0.8-1.4,0.7c-1.1,0-2.2,0-3.3,0c0.1-0.5,0.3-0.8,0.5-1c1.6-2.4,3.1-4.9,4.7-7.3
	c0.5-0.8,0.4-1.3,0-2c-1.5-2.1-2.9-4.3-4.4-6.5c-0.2-0.3-0.5-0.5-0.5-0.9c0.2-0.3,0.4-0.2,0.7-0.2c1,0,2.1,0.1,3.1,0
	c0.8-0.1,1.3,0.3,1.7,1C136.3,183,137.2,184.5,138.2,186z"/>
<path class="st1" d="M166.3,188.4c-0.1-1.8-0.6-3.6-1.6-5.1c-2.5-3.8-8.5-4-11.1-1.2c-0.1,0.2-0.2,0.4-0.6,0.4
	c-0.1-0.4-0.1-0.9-0.2-1.3c0-0.3-0.2-0.5-0.6-0.5c-1,0-2,0-3,0c-0.4,0-0.5,0.2-0.5,0.5c0,0.2,0,0.4,0,0.6c0,7.4,0,14.8,0,22.3
	c0,0.2,0,0.4,0,0.6c0,0.4,0.1,0.6,0.6,0.6c1,0,2.1,0,3.1,0c0.8,0,0.8,0,0.8-0.8c0-2.1,0-4.2,0-6.3c0-0.3,0-0.7,0-1.2
	c1,0.8,1.9,1.5,3,1.8c3.7,0.9,7.6-0.4,9.2-4.6C166.2,192.2,166.4,190.3,166.3,188.4L166.3,188.4z M161.4,192L161.4,192
	c-1,3.4-5,4.6-7.8,2.2c-0.3-0.3-0.4-0.5-0.4-0.9c0-1.2,0-2.5,0-3.7c0-1.2,0-2.4,0-3.5c0-0.5,0.2-0.9,0.6-1.2
	c1.6-1.2,3.4-1.5,5.2-0.8c1.5,0.6,2.2,1.8,2.5,3.3C161.9,188.9,161.9,190.5,161.4,192z"/>
<path class="st1" d="M173.1,183c0.5-0.5,0.8-1,1.2-1.3c1.3-1.2,2.8-1.6,4.5-1.5c0.3,0,0.6,0,0.6,0.5c0,1.3,0,2.5,0,3.9
	c-1.3-0.1-2.4-0.2-3.6,0.1c-0.4,0.1-0.8,0.2-1.2,0.5c-0.9,0.5-1.4,1.1-1.4,2.3c0.1,3.4,0,6.8,0,10.2c0,0.9,0,0.9-0.9,0.9
	c-1,0-2,0-3,0c-0.4,0-0.6-0.1-0.6-0.5c0-0.2,0-0.5,0-0.7c0-5.1,0-10.2,0-15.3c0-0.2,0-0.5,0-0.7c0-0.3,0.1-0.5,0.5-0.5c1,0,2,0,3,0
	c0.3,0,0.4,0.1,0.5,0.4C172.9,181.6,173,182.2,173.1,183z"/>
<path class="st1" d="M196.3,183.9c-0.8-1.6-2.1-2.7-3.8-3.3c-1.2-0.4-2.4-0.5-3.7-0.4c-3.4,0.1-6.2,2.1-7.5,5.3
	c-0.7,1.8-0.8,3.7-0.6,5.6c0.4,3.9,2.7,6.5,6.5,7.5c1.9,0.5,3.7,0.4,5.6,0.2c1.2-0.2,2.3-0.5,3.4-1c0.2-0.1,0.5-0.2,0.5-0.5
	c0-1.1,0.1-2.2-0.1-3.3c-0.1,0-0.2,0-0.2,0c-0.3,0.1-0.5,0.2-0.8,0.4c-1.7,0.8-3.5,1.2-5.4,1.1c-3.2-0.1-4.9-1.7-5.3-5
	c0.4-0.2,0.8-0.1,1.1-0.1c3.3,0,6.6,0,9.8,0c0.2,0,0.5,0,0.7,0c0.3,0,0.4-0.1,0.5-0.5C197.3,187.8,197.2,185.8,196.3,183.9
	L196.3,183.9z M185.3,187.2L185.3,187.2c0-2.2,1.8-3.9,4.2-3.8c2.1,0,3.4,1.5,3.4,3.8C190.3,187.2,187.8,187.2,185.3,187.2z"/>
<path class="st1" d="M211.1,184.6c-1.3-0.4-2.3-0.9-3.5-1.1c-0.9-0.1-1.9-0.2-2.8-0.1c-1.3,0.2-2,1.3-1.5,2.4c0.2,0.5,0.6,0.8,1.1,1
	c0.7,0.3,1.4,0.4,2.2,0.6c1,0.3,2.1,0.6,3,1c1.6,0.8,2.5,2,2.7,3.8c0.3,2.8-1.1,5.2-3.8,6c-2.9,0.9-5.8,0.7-8.6-0.6
	c-0.6-0.3-0.8-0.7-0.8-1.3c0.1-0.9,0-1.8,0-2.8c0.5-0.1,0.7,0.2,1,0.4c1.8,1.1,3.8,1.6,5.9,1.3c0.6-0.1,1.2-0.3,1.6-0.8
	c0.7-0.9,0.5-2.1-0.5-2.7c-0.5-0.3-1-0.4-1.5-0.5c-0.9-0.2-1.7-0.4-2.6-0.7c-2.8-0.9-4.1-2.7-4-5.5c0.1-2.4,1.8-4.3,4.5-4.9
	c2.3-0.5,4.6-0.3,6.8,0.5c0.5,0.2,0.8,0.4,0.7,1C211.1,182.6,211.1,183.5,211.1,184.6z"/>
<path class="st1" d="M214,193.5c1.3,0.9,2.5,1.5,3.8,1.8c1.1,0.2,2.3,0.3,3.4,0.1c1-0.2,1.6-0.8,1.7-1.6c0.1-0.9-0.2-1.5-1.1-1.9
	c-0.8-0.4-1.6-0.5-2.4-0.7c-0.8-0.2-1.6-0.4-2.4-0.8c-1.9-1-3-2.5-3-4.7c0-2.2,1-3.8,3-4.8c1.3-0.6,2.6-0.8,4-0.8
	c1.5,0,3,0.2,4.4,0.8c0.5,0.2,0.7,0.4,0.7,0.9c0,0.6,0,1.3,0,1.9c0,1,0,1-0.9,0.6c-1.5-0.6-3-0.9-4.6-0.9c-0.4,0-0.7,0-1.1,0.1
	c-0.9,0.2-1.3,0.7-1.4,1.4c-0.1,0.9,0.2,1.4,1,1.8c0.5,0.2,1,0.4,1.5,0.5c1.1,0.3,2.3,0.6,3.4,1c4.4,1.5,3.7,7.4,1.1,9.2
	c-0.9,0.6-1.8,1-2.8,1.2c-2.5,0.4-5,0.3-7.4-0.8c-0.6-0.3-0.9-0.6-0.9-1.4C214,195.5,214,194.6,214,193.5z"/>
<path class="st1" d="M196.6,84.4c0-0.3-0.1-0.5-0.5-0.5c-0.7,0.1-1.4,0-2,0c-32.7,0-65.4,0-98.1,0c-0.3,0-0.6,0-1,0
	c-0.4,0-0.6,0.2-0.6,0.6c0,0.2,0,0.4,0,0.6c0,9.2,0,18.3,0,27.5c0,0.3,0,0.7,0,1c0.1,0,0.2,0.1,0.2,0.1c0.2-0.2,0.4-0.3,0.5-0.5
	c2.4-2.4,4.8-4.7,7.1-7.1c0.5-0.5,1.1-0.9,1.8-0.9c0.2,0,0.4,0,0.6-0.1c5.3-0.5,10.6-1,15.9-1.5c5.2-0.5,9.9,3,10.6,8.2
	c0.8,5.5-3,9.9-7.6,10.8c-1.1,0.2-2.2,0.3-3.3,0.4c-1.3,0.1-2.6,0.2-3.8,0.3c-0.3,0-0.6,0.1-0.7,0.5c-0.1,1.7-0.3,3.4-0.5,5.1
	c0,0.3,0,0.5,0.4,0.5c0.2,0,0.5,0.1,0.7,0.1c6.5,1.1,13,2.2,19.5,3.3c1.4,0.2,2.9,0.2,4.3-0.3c3.8-1.3,7.6-2.5,11.4-3.7
	c4.3-1.4,8.5-0.1,11.3,3.5c0.4,0.5,0.8,0.6,1.3,0.6c4,0,7.9,0,11.9,0c4.5,0,9.1,0,13.6,0c3.7,0,6.5-2.7,6.7-6.4c0-0.4,0-0.7,0-1.1
	c0-13.6,0-27.1,0-40.7C196.6,84.9,196.6,84.7,196.6,84.4z"/>
<path class="st1" d="M156.4,132.3c-1.2-0.3-2.5-0.1-3.7,0.3c-4.4,1.5-8.8,2.9-13.2,4.3c-0.5,0.2-1,0.3-1.6,0.2
	c-8.3-1.4-16.6-2.9-24.9-4.3c-1.4-0.2-1.4-0.3-1.3-1.7c0.3-3.3,0.7-6.5,1-9.8c0.1-1,0.1-1,1.1-1c2.8-0.2,5.6-0.4,8.4-0.7
	c3.8-0.3,6.3-3.7,5.6-7.4c-0.6-3.1-3.4-5.1-6.6-4.9c-5.2,0.4-10.4,0.9-15.7,1.4c-0.6,0.1-1.1,0.3-1.5,0.7c-3.4,3.4-6.7,6.7-10.1,10
	c-0.6,0.6-1.3,1-2.2,0.9c-1.6-0.1-3.2,0-4.8,0c-0.7,0-0.8,0-0.8,0.8c0,8,0,16,0,24c0,0.8,0,0.8,0.9,0.8c1.7,0,3.4,0,5.1,0
	c0.6,0,1.1,0.1,1.6,0.4c2.6,1.5,5.2,3.1,7.8,4.6c0.6,0.3,1.1,0.5,1.8,0.5c6.1,0,12.2,0,18.3,0c6.1,0,12.1,0,18.2,0
	c0.6,0,1.2-0.1,1.8-0.3c2.3-0.9,4.7-1.8,7-2.6c2.9-1.1,5.9-2.2,8.8-3.3c2.8-1.1,4.4-3.9,4.2-6.7C161.5,135.3,159.4,133,156.4,132.3z
	"/>
<path class="st1" d="M178.4,71.9c-21.9,0-43.9,0-65.8,0c-0.6,0-1.1,0.2-1.6,0.5c-3.5,2.5-7,4.9-10.5,7.4c-0.2,0.2-0.5,0.3-0.7,0.6
	c30.5,0,60.9,0,91.4,0c-0.3-0.2-0.4-0.3-0.5-0.4c-3.6-2.6-7.3-5.1-10.9-7.7C179.5,72,179,71.9,178.4,71.9z"/>
<path class="st1" d="M111.9,68c0.3,0.5,0.7,0.5,1.1,0.5c21.7,0,43.4,0,65.1,0c0.6,0,1-0.2,1.3-0.7c1.3-2.3,2.7-4.5,4.1-6.8
	c0.1-0.2,0.3-0.3,0.2-0.6c-0.6-0.3-1.2-0.2-1.8-0.2c-16,0-32,0-48.1,0c-8.2,0-16.5,0-24.7,0c-0.6,0-1.1-0.1-1.6,0.2
	c0,0.1,0,0.2,0.1,0.3C109,63.1,110.5,65.5,111.9,68z"/>
<path class="st1" d="M81.8,115.4c-4.1,0-8.2,0-12.3,0c-0.9,0-0.9,0-0.9,0.9c0,11.4,0,22.8,0,34.2c0,0.9,0,0.9,0.9,0.9
	c4.1,0,8.2,0,12.3,0c0.1,0,0.3,0,0.4,0c0.4,0,0.5-0.2,0.5-0.5c0-0.2,0-0.5,0-0.7c0-5.6,0-11.2,0-16.8c0-5.7,0-11.4,0-17.1
	C82.7,115.4,82.7,115.4,81.8,115.4z"/>
<path class="st1" d="M194.5,78.3c0.1-0.3,0.1-0.4,0-0.5c-2.1-5-4.4-10-6.7-15c-0.2-0.4-0.4-0.7-0.9-0.9c-1.6,2.6-3.1,5.2-4.7,7.8
	C186.4,72.6,190.4,75.4,194.5,78.3z"/>
<path class="st1" d="M96.8,78.1c3.8-2.7,7.6-5.3,11.4-8c0.7-0.5,0.7-0.5,0.2-1.2c-1.1-1.8-2.2-3.6-3.3-5.4c-0.3-0.5-0.7-1.1-1-1.6
	c-0.6,0.2-0.8,0.6-1,1c-2.3,4.9-4.6,9.9-6.7,14.9c-0.1,0.1-0.3,0.3-0.1,0.5C96.5,78.4,96.7,78.3,96.8,78.1z"/>
<path class="st2" d="M204.3,304.6v-29.4h6v25.3C208.7,301.3,206.4,302.9,204.3,304.6L204.3,304.6z M193.9,313.4L193.9,313.4
	c1.8-2.2,3.8-4.5,6-6.4v-31.9h-6V313.4L193.9,313.4z M124,336.8L124,336.8c0,7.9,3.1,15.3,8.8,21c5.7,5.7,13.1,8.8,21,8.8
	c3.3,0,6.7-0.7,9.2-1.9v-6c-2.8,1.2-6.2,1.9-9.2,1.9c-12.9,0-23.8-10.9-23.8-23.7v-5.4c0-12.9,10.9-23.7,23.8-23.7
	c6.4,0,12.4,2.5,16.8,6.9c4.5,4.5,6.9,10.4,6.9,16.8v35.2h6v-36.4c-0.4-7.7-3.7-14.9-9.2-20.3c-5.6-5.4-12.9-8.4-20.5-8.4
	c-7.9,0-15.3,3.1-21,8.8c-5.7,5.7-8.8,13.1-8.8,21V336.8L124,336.8z M214.3,322.4c-3.1,2.8-8.7,9.1-13.2,14.4
	c-5,5.8-8.1,9.6-13.4,16.5v-9.4c4.8-6.4,10.4-12.8,14.3-17c2.3-2.7,6.1-6.5,7.7-8.1l0,0c6-5.4,11.1-6.6,14.3-6.6c5,0,9.9,2,13.6,5.8
	c3.7,3.7,5.7,8.5,5.7,13.6v5.4c0,10.6-8.7,19.3-19.3,19.3c-4.4,0-8.7-1.8-12.2-4.9c-3.4-3.1-5.8-7.4-6.7-12l4.9-6
	c0.2,3.8,1.8,8.1,4.2,11.3c2.7,3.6,6.2,5.6,9.8,5.6c7.4,0,13.3-5.8,13.3-13.3v-5.4c0-7.4-5.8-13.3-13.3-13.3
	C220.6,318.1,217,319.6,214.3,322.4L214.3,322.4L214.3,322.4z M71.9,311L71.9,311v-7.1c-5.5-2.9-11.4-4.2-19.3-4.2
	c-8.1,0-15.7,3-21.5,8.3c-5.8,5.4-9,12.4-9,19.9v1.9c0,15.6,12.5,28.2,27.8,28.2c12.5,0,17.6-4.1,18.9-5.4v-18.1H48.4v6h14.7v9.1
	l-0.1,0c-1.9,0.8-5.8,2.3-13.2,2.3c-5.9,0-11.3-2.3-15.4-6.4c-4.1-4.2-6.4-9.8-6.4-15.8v-1.9c0-12,11.2-22.2,24.5-22.2
	C61.8,305.7,67.2,307.2,71.9,311L71.9,311z M115.8,318.1c-7.8,0-13.3,5.5-13.3,13.3v35.2h-6v-35.2c0-11,8.3-19.3,19.3-19.3
	c2.9,0,6.8,0.7,8.4,1.9c-1.1,1.9-1.9,3.4-2.6,5.3C120,318.5,118.1,318.1,115.8,318.1L115.8,318.1L115.8,318.1z M11.5,327.9
	c0-20.8,18.8-38.3,41-38.3c8.4,0,14.3,1,19.3,3.1v6.8c-4.8-2.9-10.7-4.2-19.3-4.2c-9.2,0-17.9,3.5-24.6,9.8
	c-6.6,6.2-10.4,14.5-10.4,22.9v1.9c0,8.9,3.3,17.1,9.3,23.2c6,6.1,14.2,9.5,23,9.5c13.5,0,20.4-4.9,23.3-7.8l0,0v-24.6H48.4v-6h30.9
	v32.5c-0.2,0.3-2.5,3.4-7.6,6.4c-6.2,3.7-13.5,5.6-21.8,5.6c-10.3,0-20-4-27.1-11.2c-7.2-7.3-11.2-17-11.2-27.5V327.9L11.5,327.9
	L11.5,327.9z M173.1,366.6h-6v-35.2c0-7.4-5.8-13.3-13.3-13.3c-7.4,0-13.3,5.8-13.3,13.3v5.4c0,7.4,5.8,13.3,13.3,13.3
	c3.4,0,6.8-1.1,9.2-3v6.4c-2.4,2-6.3,2.7-9.2,2.7c-10.5,0-19.3-8.9-19.3-19.3v-5.4c0-5,2-9.9,5.7-13.6c3.7-3.7,8.5-5.8,13.6-5.8
	c10.8,0,19.3,8.5,19.3,19.3V366.6L173.1,366.6L173.1,366.6z M115.8,307.6c-14,0-23.8,9.8-23.8,23.7v35.2h-6v-35.2
	c0-8.3,3-15.8,8.4-21.3c5.4-5.5,13-8.5,21.4-8.5c5.9,0,11.6,1.6,15,4.2c-1.1,1.1-2.7,2.7-4.2,4.5
	C123.4,308.5,119.9,307.6,115.8,307.6L115.8,307.6L115.8,307.6z M245,310.4L245,310.4c-5.7-5.7-13.1-8.8-21-8.8
	c-5.7,0-11.5,2.1-14.7,4.3c-6.6,4.4-12,9.1-21.7,21.7v9c8.2-10.7,16-19.2,22-23.9c3.9-3.1,9.4-5.1,14.4-5.1
	c12.9,0,23.8,10.9,23.8,23.7v5.4c0,6.4-2.5,12.3-7.1,16.8c-4.5,4.5-10.4,6.9-16.7,6.9c-10.6,0-19.9-7.3-22.4-17.2l-4.3,5.2
	c3.1,10.4,14.3,18.1,26.7,18.1c7.9,0,15.3-3.1,21-8.8c5.7-5.7,8.8-13.1,8.8-21v-5.4C253.8,323.5,250.7,316,245,310.4z"/>
</svg>
