<?xml version="1.0" encoding="UTF-8" standalone="no"?>
<svg
   width="264.58334mm"
   height="100.14234mm"
   viewBox="0 0 264.58334 100.14234"
   version="1.1"
   id="svg8"
   xmlns="http://www.w3.org/2000/svg"
   xmlns:svg="http://www.w3.org/2000/svg"
   xmlns:rdf="http://www.w3.org/1999/02/22-rdf-syntax-ns#"
   xmlns:cc="http://creativecommons.org/ns#"
   xmlns:dc="http://purl.org/dc/elements/1.1/">
  <defs
     id="defs2" />
  <metadata
     id="metadata5">
    <rdf:RDF>
      <cc:Work
         rdf:about="">
        <dc:format>image/svg+xml</dc:format>
        <dc:type
           rdf:resource="http://purl.org/dc/dcmitype/StillImage" />
      </cc:Work>
    </rdf:RDF>
  </metadata>
  <g
     id="layer1"
     transform="translate(-371.31728,59.527701)">
    <g
       id="g890"
       transform="translate(-263.4448,4.0136794)">
      <g
         id="g894"
         transform="translate(-0.80257426,7.2231683)">
        <path
           d="m 651.08587,29.292004 c -1.95943,-0.22832 -3.48216,-0.691563 -5.29985,-1.612632 -4.72612,-2.394446 -8.27065,-6.52428 -9.60763,-11.194167 -0.65283,-2.279225 -0.6168,-0.08576 -0.59185,-36.052125 l 0.12807,-34.152255 c 0.16315,-2.263199 0.5071,-3.737988 1.41796,-6.076115 1.64113,-4.210656 4.3266,-7.164951 8.28971,-9.120182 2.229,-1.099671 4.35911,-1.652922 6.96312,-1.808912 0.90026,-0.05352 15.58855,-0.06225 34.76355,-0.01977 36.69965,0.08149 33.66739,0.01977 35.96301,0.733037 1.05611,0.327993 3.00871,1.252589 4.2023,1.989633 4.1903,2.587892 7.2249,6.798547 8.12988,11.28088 0.17774,0.880539 0.18669,2.624887 0.18669,35.444913 l -0.18552,35.698912 c -0.59327,3.77215 -2.34952,7.057974 -5.41756,10.136441 -2.4025,2.410698 -4.62042,3.738459 -7.56462,4.52875 l -1.07023,0.287232 -34.76354,0.01416 c -19.11989,0.008 -35.11432,-0.02707 -35.54303,-0.07704 z m 14.50725,-10.281352 c 1.49893,-0.509898 3.35218,-1.762015 4.8662,-3.288174 1.18936,-1.19864 2.12234,-2.498829 2.7714,-3.861224 0.75547,-1.585765 0.94028,-2.3506127 1.0029,-4.151038 0.0909,-2.6222954 -0.28887,-4.8079765 -1.1484,-6.6159355 -1.03327,-2.1727235 -2.39025,-3.7728621 -8.592,-10.1329049 -6.68626,-6.8567516 -8.61061,-8.9062406 -10.05752,-10.7113766 -0.43435,-0.541469 -0.55182,-0.762016 -0.50498,-0.942746 0.22295,-0.854616 2.5082,-3.201933 8.3354,-8.563626 6.13347,-5.643269 8.06465,-7.66165 10.17593,-10.635262 1.31602,-1.853208 2.25818,-4.017678 2.59389,-5.958539 0.20647,-1.191801 0.20718,-3.431201 0.003,-4.634077 -0.44071,-2.582001 -1.80686,-5.159525 -3.60738,-6.803025 -2.55812,-2.334593 -5.0682,-3.411173 -8.65581,-3.712069 -1.5385,-0.128888 -7.84312,-0.05019 -9.40281,0.117579 -3.48638,0.375118 -6.72627,2.822812 -7.54955,5.703824 -0.16409,0.573987 -0.17986,2.339305 -0.21376,23.824724 l 0.0565,34.0999481 c 0.101,12.1390319 0.0508,11.3616979 0.83787,12.5914359 0.53818,0.838362 1.67245,2.040066 2.46512,2.610282 0.79267,0.570215 1.55191,0.925068 2.54774,1.191567 0.72747,0.194624 1.09638,0.204054 7.00338,0.180962 l 6.23566,-0.02431 z m 53.26662,0.15787 c -0.39386,-0.736331 -3.25708,-3.733749 -10.1837,-10.6602404 -7.89845,-7.89845633 -28.43443,-29.0457506 -28.4695,-29.3174256 -0.093,-0.714183 3.55231,-4.563389 8.18944,-8.648927 2.64191,-2.327524 6.45224,-6.015322 8.77092,-8.4887 4.60959,-4.917301 5.782,-6.642562 6.19799,-9.12018 0.20317,-1.206646 0.18269,-3.98092 -0.0339,-4.856039 -0.24084,-0.970076 -0.64364,-1.961123 -1.15474,-2.844019 -0.56031,-0.966542 -2.63016,-3.071163 -3.75031,-3.812209 -1.57874,-1.044536 -3.50827,-1.871351 -5.30031,-2.271681 -0.8706,-0.194393 -7.03492,-0.318332 -9.04873,-0.181904 l -1.2541,0.08506 0.0874,0.337183 c 0.0509,0.185438 0.57254,1.064091 1.16582,1.952877 0.59326,0.888785 1.26468,2.010135 1.49188,2.491993 1.20371,2.553961 1.76402,5.736811 1.65431,9.395864 -0.0892,2.968665 -0.51628,4.71419 -1.78828,7.308915 -1.76873,3.607922 -4.14721,6.401281 -9.40398,11.045962 -3.06638,2.709004 -5.52985,5.174842 -6.67542,6.681436 l -0.80351,1.056559 6.0518,6.41094 8.90371,9.5666957 c 2.49218,3.0042384 3.73475,5.68591636 4.2162,9.0994463 0.22787,1.6133367 0.20363,4.6920348 -0.0508,6.167531 -0.38586,2.26438 -1.22185,4.242231 -2.77353,6.561985 -0.49038,0.732325 -1.00714,1.532047 -1.14956,1.776862 l -0.25898,0.445333 h 17.73302 l 17.63509,-0.183313 z m 7.01491,-36.378462 -0.42306,-35.042693 c -0.85882,-5.684502 -3.16527,-8.068813 -8.34974,-8.63149 -1.22232,-0.132658 -7.60865,-0.159284 -7.60865,-0.03204 0,0.191564 0.71121,1.190623 1.6609,2.333179 1.16606,1.402452 1.70517,2.176015 2.18497,3.134783 1.06882,2.135252 1.38805,4.467253 1.15522,8.433328 -0.21259,3.619231 -0.63682,5.200996 -1.97967,7.383609 -1.90222,3.091663 -4.39959,5.750479 -11.13058,11.850393 -3.97371,3.601089 -6.61986,6.392564 -6.5231,6.881249 0.0113,0.08461 6.99866,7.240111 15.51556,15.9005841 l 15.48521,15.7464899 0.0339,-0.490814 c 0.0226,-0.2700265 0.005,-12.6300764 -0.0226,-27.466807 z"
           id="path4"
           style="fill:#00529c;fill-opacity:1;stroke-width:0.235525" />
        <path
           d="m 797.21411,-25.403635 c 0.55929,-0.559144 1.21981,-1.279219 1.98202,-2.160465 0.76031,-0.881244 1.48063,-1.921773 2.16115,-3.123472 0.68052,-1.201698 1.26171,-2.540531 1.74121,-4.022625 0.48162,-1.48021 0.72243,-3.061738 0.72243,-4.742701 0,-3.280636 -0.56119,-6.342375 -1.68167,-9.185216 -1.12235,-2.840954 -2.84379,-5.323756 -5.16619,-7.446522 -2.3224,-2.118757 -5.22387,-3.781813 -8.70864,-4.983511 -3.48266,-1.199578 -7.5484,-1.800426 -12.19131,-1.800426 h -0.12735 -13.34944 -3.47466 -13.67969 V -47.562005 5.4283991 21.186672 h 33.6343 c 4.88373,0 9.14648,-0.660466 12.79226,-1.981387 3.64179,-1.320932 6.66684,-3.141385 9.0688,-5.463019 2.40197,-2.321634 4.18319,-5.0233316 5.34534,-8.1048616 1.16025,-3.08153 1.74121,-6.38407859 1.74121,-9.9074149 0,-4.7229105 -1.0807,-8.9246125 -3.24185,-12.6091135 -2.16327,-3.680493 -4.6867,-6.523327 -7.56816,-8.524747 m -14.87173,-22.062703 c 1.13224,0.431667 2.07758,0.992695 2.81602,1.69887 1.91257,1.834357 2.86968,4.026631 2.86968,6.577059 0,2.313621 -0.39993,4.225499 -1.19604,5.739404 -0.79798,1.516024 -1.59597,2.671774 -2.39207,3.467487 h -23.38124 v -18.475754 h 14.53347 c 2.72446,0 4.96729,0.33624 6.75041,0.992698 m -2.42598,32.030196 c 4.23286,0 7.36926,1.096145 9.41107,3.284649 1.92034,2.1545737 2.88758,4.696986 2.88758,7.6394998 0,3.0318102 -1.09647,5.6201753 -3.28964,7.7726292 -2.19505,2.1524543 -5.80105,3.2309124 -10.82601,3.2309124 h -1.87656 -15.16434 V -15.436614 Z m 85.13151,0.419889 c 2.52154,-1.720782 4.62502,-3.722198 6.30644,-6.004015 1.68142,-2.281808 2.92148,-4.802547 3.72347,-7.56386 0.8001,-2.763435 1.20192,-5.584362 1.20192,-8.467024 0,-3.762021 -0.62286,-7.223619 -1.86268,-10.386912 -1.24381,-3.161172 -3.1046,-5.882665 -5.58613,-8.164713 -2.48365,-2.281813 -5.58615,-4.062446 -9.30961,-5.343551 -3.72347,-1.279219 -8.02789,-1.921773 -12.91161,-1.921773 h -0.43972 -32.35258 -0.30248 v 84.055476 h 15.91853 v -31.220112 h 8.87578 l 21.95263,31.220112 h 18.659 l -22.70072,-32.300467 c 3.36119,-0.879356 6.30456,-2.180489 8.82799,-3.903161 m -18.31862,-33.442311 a 22.701419,22.723874 0 0 1 2.84593,0.179076 c 2.8379,0.427664 5.1563,1.440389 6.94341,3.049721 2.43186,2.194396 3.64791,4.884078 3.64791,8.07117 a 14.297845,14.311987 0 0 1 -0.77821,4.66518 10.644527,10.655056 0 0 1 -2.45187,4.004718 c -1.11836,1.157872 -2.55332,2.092839 -4.30654,2.811031 -1.75533,0.718191 -3.8687,1.076344 -6.34034,1.076344 h -16.85588 v -23.85724 z m 37.81303,-14.409537 v 0.0238 l -0.4795,-0.0238 h -0.13535 v 0.0059 30.810359 22.076603 31.162387 h 16.23114 V -62.8688 Z"
           fill-rule="nonzero"
           id="path6"
           style="fill:#00529c;fill-opacity:1;stroke-width:0.23551" />
      </g>
    </g>
  </g>
</svg>
