<?xml version="1.0" encoding="UTF-8"?>
<!DOCTYPE svg PUBLIC "-//W3C//DTD SVG 1.1//EN" "http://www.w3.org/Graphics/SVG/1.1/DTD/svg11.dtd">
<!-- Creator: CorelDRAW 2019 (64-Bit) -->
<svg xmlns="http://www.w3.org/2000/svg" xml:space="preserve" width="220px" height="240px" version="1.1" style="shape-rendering:geometricPrecision; text-rendering:geometricPrecision; image-rendering:optimizeQuality; fill-rule:evenodd; clip-rule:evenodd"
viewBox="0 0 220 239.76"
 xmlns:xlink="http://www.w3.org/1999/xlink"
 xmlns:xodm="http://www.corel.com/coreldraw/odm/2003">
 <defs>
  <style type="text/css">
   <![CDATA[
    .fil0 {fill:red}
    .fil2 {fill:url(#id0)}
    .fil1 {fill:url(#id1)}
   ]]>
  </style>
  <linearGradient id="id0" gradientUnits="userSpaceOnUse" x1="137.99" y1="52.74" x2="23.98" y2="209.04">
   <stop offset="0" style="stop-opacity:1; stop-color:white"/>
   <stop offset="1" style="stop-opacity:1; stop-color:red"/>
  </linearGradient>
  <radialGradient id="id1" gradientUnits="userSpaceOnUse" gradientTransform="matrix(2.33025 -1.33267 1.33268 2.33027 -259 264)" cx="196.4" cy="-1.8" r="110.25" fx="196.4" fy="-1.8">
   <stop offset="0" style="stop-opacity:1; stop-color:white"/>
   <stop offset="0.501961" style="stop-opacity:1; stop-color:red"/>
   <stop offset="0.219608" style="stop-opacity:1; stop-color:#FF7F7F"/>
   <stop offset="1" style="stop-opacity:1; stop-color:red"/>
  </radialGradient>
 </defs>
 <g id="Layer_x0020_1">
  <metadata id="CorelCorpID_0Corel-Layer"/>
  <path class="fil0" d="M174.96 224.59c2.47,-3.17 5.28,-6.07 8,-9.23 1,-1.18 3.47,-3.25 1.84,-5.73 -1.49,-2.26 -4.14,-1.34 -5.5,0.27 -2.65,3.14 -5.24,5.99 -7.87,9.08 -1.25,1.46 -7.03,8.28 -8.02,8.79 -0.18,-8.78 -0.12,-17.83 -0.04,-26.63 0.08,-8.16 -5.43,-5.34 -6.06,-3.48 -0.56,1.64 -0.24,22.71 -0.24,26.21 0,6.67 -1.89,17 3.94,15.68 2.21,-0.5 6.37,-7.38 9.54,-9.86 3.78,1.53 10.12,13.41 14.04,8.93 2.59,-2.96 -2.14,-6.33 -3.45,-7.67 -1.37,-1.38 -5.48,-5.1 -6.18,-6.36zm-119.36 0c2.27,-2.88 5.33,-6.43 7.96,-9.23 5.7,-6.07 -0.41,-9.11 -3.63,-5.44 -1.99,2.28 -14.66,17.12 -15.91,17.82 -0.23,-8.73 -0.08,-17.84 -0.02,-26.6 0.01,-2.25 0.06,-4.33 -1.79,-5.15 -1.69,-0.74 -3.7,0.03 -4.28,1.67 -0.47,1.36 -0.24,22.98 -0.24,26.21 0,6.68 -1.88,17.01 3.91,15.7 2.05,-0.47 6.81,-7.58 9.55,-9.83 3.46,1.08 10.12,13.45 14.05,8.9 3.47,-4.03 -6.13,-8.92 -9.6,-14.05zm-41.83 -9.77c5.4,-1.29 10.03,2.61 11.08,6.83 1.4,5.6 -2.35,10.29 -6.66,11.42 -11.98,3.16 -17.25,-15.17 -4.42,-18.25zm11.05 22.25c1.16,1.07 0.58,1.68 2.17,2.32 0.93,0.38 2.11,0.32 3.02,-0.23 1.91,-1.17 1.4,-4.07 1.41,-6.64 0.02,-5.15 0.54,-10.68 -1.37,-14.97 -3.02,-6.77 -12.28,-12.46 -21.59,-7.52 -12.65,6.7 -10.73,25.42 3.23,29.15 6.81,1.82 10.34,-1.32 13.13,-2.11zm107.85 -22.22c5.59,-1.78 10.33,2.62 11.48,6.52 1.7,5.74 -2.35,10.4 -6.28,11.59 -11.67,3.54 -17.81,-14.11 -5.2,-18.11zm11.55 22.04c0.96,1.33 1.97,3.92 4.96,2.42 2.1,-1.05 1.61,-3.98 1.6,-6.79 0,-5.03 0.54,-10.75 -1.32,-14.96 -3.1,-7.01 -12.76,-12.47 -21.86,-7.44 -6.51,3.61 -11.54,13.2 -5.86,22.16 2.06,3.24 5.46,5.97 9.59,6.98 5.6,1.36 9.09,-0.41 12.89,-2.37zm47.47 -9.42c1.4,11.66 16.98,16.82 24.94,7.12 4.23,-5.17 3.28,-10.22 3.28,-17.94 0,-3.5 0.73,-7.5 -2.2,-8.25 -9.01,-2.29 0.84,18.63 -7.82,23.79 -5.75,3.42 -11.86,-0.67 -11.95,-7.22 -0.09,-7.44 1.66,-18.86 -4.47,-16.46 -2.59,1.02 -1.87,5.26 -1.87,8.5 0,3.05 -0.25,7.59 0.09,10.46zm-91.42 0.73c0.56,-2.73 0.28,-7.4 0.28,-10.47 0,-2.96 0.76,-7.67 -1.46,-9 -1.52,-0.9 -3.22,-0.42 -4.07,0.58 -2.92,3.43 2.29,17.9 -3.87,22.45 -2.11,1.57 -5.31,2.32 -8.28,0.75 -9.68,-5.1 0.36,-24.33 -7.54,-24.22 -3.8,0.05 -3.05,4.23 -3.05,7.64 0,6.92 -0.98,13.38 2.86,18.21 7.66,9.64 22.69,6.06 25.13,-5.94zm6.65 9.01c0.64,3.21 6.06,3.72 6.29,-1.06l-0.16 -37.78c-0.62,-3.61 -6.09,-3.96 -6.27,0.95l0.06 25.27c0,2.71 -0.34,10.49 0.08,12.62z"/>
  <path class="fil1" d="M110 0c49.71,0 90,40.29 90,90 0,49.71 -40.29,90 -90,90 -49.71,0 -90,-40.29 -90,-90 0,-49.71 40.29,-90 90,-90z"/>
  <path class="fil2" d="M96.28 108.44c-15.39,-3.36 -24.7,-17.54 -22.06,-33.73 2.31,-14.16 14.63,-23.5 28.65,-23.58l5.1 0.6c11.99,2.36 21.77,13.17 22.34,27.1 0.03,18.88 -14.87,33.78 -34.03,29.61zm-32 -54.52c-23.66,36.55 8.63,80.4 48.52,71.47 3.04,-0.68 5.86,-1.6 8.63,-2.83 1.36,-0.6 2.68,-1.24 3.97,-1.94 2.47,-1.5 4.19,-2.62 6.96,-4.87 1.3,-1.06 1.66,-2.1 3.52,-2.26 1.29,0.32 3.09,6.4 10.09,5.88 4.31,-0.32 7.44,-3.67 8.38,-7.43l0.01 -4.09c-0.7,-7.56 -1.37,-14.98 -2.67,-22.47 -1.65,-9.55 -4.83,-22.89 -10.09,-30.6 -8.52,-12.48 -18.13,-17.78 -32.44,-20.61 -16.95,-2.55 -35.5,5.26 -44.88,19.75zm91.89 -0.62c2.32,8.53 4.71,18.3 5.85,27.67l2.01 18.03c0.25,5.6 -0.14,8.33 1.82,13.08 2.38,3.53 8.34,6.32 13.48,1.27 8.19,-8.05 -4.08,-58.83 -7.98,-69.87 -2.76,-7.79 -7.68,-21.6 -12.49,-25.42 -2.17,-1.72 -8.85,-6.56 -13.44,-5.37 -5.43,1.41 -0.36,9.29 1,12.58 2.93,7.08 8.32,20.74 9.75,28.03l0 0z"/>
 </g>
</svg>
