<?xml version="1.0" encoding="UTF-8"?>
<!DOCTYPE svg PUBLIC "-//W3C//DTD SVG 1.1//EN" "http://www.w3.org/Graphics/SVG/1.1/DTD/svg11.dtd">
<!-- Creator: CorelDRAW 2019 (64-Bit) -->
<svg xmlns="http://www.w3.org/2000/svg" xml:space="preserve" width="1144px" height="240px" version="1.1" style="shape-rendering:geometricPrecision; text-rendering:geometricPrecision; image-rendering:optimizeQuality; fill-rule:evenodd; clip-rule:evenodd"
viewBox="0 0 1144 240.08"
 xmlns:xlink="http://www.w3.org/1999/xlink"
 xmlns:xodm="http://www.corel.com/coreldraw/odm/2003">
 <defs>
  <style type="text/css">
   <![CDATA[
    .fil2 {fill:#DAB96B}
    .fil1 {fill:#E62129}
    .fil0 {fill:#093F7A}
   ]]>
  </style>
 </defs>
 <g id="Layer_x0020_1">
  <metadata id="CorelCorpID_0Corel-Layer"/>
  <path class="fil0" d="M42.34 21.89l52.81 0c11.78,0 20.16,0.64 25.14,1.89 6.56,1.58 11.57,4.64 15.03,9.21 3.43,4.58 5.02,9.72 4.76,15.51 -0.22,4.74 -1.88,9.59 -4.99,14.5 -3.12,4.94 -7.6,8.98 -13.5,12.17 -5.89,3.2 -14.84,6.13 -26.86,8.82 12.22,3.49 20.56,7.93 25.13,13.38 4.56,5.49 6.67,11.81 6.34,19.04 -0.3,6.76 -2.95,13.46 -7.99,20.05 -5.04,6.59 -11.51,11.43 -19.49,14.49 -7.94,3.07 -22.33,4.58 -43.15,4.58l-55.57 0 1.44 -3.63c5.38,0 9.27,-0.51 11.64,-1.48 2.36,-1.01 4.32,-2.53 5.82,-4.61 1.51,-2.05 3.35,-6.39 5.56,-12.95l27.53 -82.17c2.79,-8.35 4.25,-13.93 4.38,-16.75 0.1,-2.33 -0.75,-4.21 -2.64,-5.72 -1.88,-1.52 -6.05,-2.39 -12.56,-2.66l1.17 -3.67zm27.6 59.04c8.95,-0.14 16.05,-1.55 21.35,-4.24 5.26,-2.69 9.6,-7.1 13,-13.26 3.37,-6.12 5.21,-11.94 5.46,-17.39 0.22,-5.11 -1.2,-9.28 -4.29,-12.51 -3.05,-3.23 -7.28,-4.77 -12.67,-4.64l-5.46 0.2 -17.39 51.84zm-2.69 7.39l-19.71 59.44c3.29,0.1 5.74,0.17 7.39,0.17 14.63,0 25.01,-4.07 31.09,-12.25 6.08,-8.17 9.34,-16.95 9.75,-26.27 0.21,-4.47 -0.73,-8.44 -2.76,-11.87 -2.07,-3.46 -4.78,-5.85 -8.22,-7.2 -3.41,-1.34 -9.26,-2.02 -17.54,-2.02zm173.17 -22.77l-22.04 65.53 -2.34 8c-0.25,0.98 -0.38,1.72 -0.4,2.15 -0.04,0.81 0.24,1.48 0.75,2.09 0.54,0.57 1.1,0.87 1.67,0.87 1.38,0 3.35,-1.04 5.86,-3.16 1.05,-0.84 3.54,-3.87 7.51,-9.05l3.38 1.79c-5.06,8.51 -10.31,14.73 -15.77,18.67 -5.46,3.9 -11.26,5.85 -17.35,5.85 -3.77,0 -6.58,-0.98 -8.45,-2.9 -1.89,-1.95 -2.76,-4.4 -2.63,-7.36 0.12,-2.56 1.37,-7.3 3.8,-14.26l2.72 -8.01c-8.22,13.09 -15.94,22.34 -23.21,27.78 -4.21,3.17 -8.62,4.75 -13.23,4.75 -6.05,0 -10.32,-2.49 -12.79,-7.44 -2.46,-4.97 -3.56,-10.56 -3.28,-16.81 0.42,-9.25 3.72,-19.88 9.9,-31.86 6.19,-12 14.06,-21.62 23.57,-28.92 7.83,-6.06 15.07,-9.09 21.69,-9.09 3.67,0 6.58,1.08 8.74,3.2 2.12,2.15 3.6,6.05 4.39,11.7l4.11 -12.14 23.4 -1.38zm-32.35 18.74c0.23,-5.32 -0.43,-9.18 -1.98,-11.54 -1.1,-1.65 -2.68,-2.45 -4.7,-2.45 -2.05,0 -4.18,0.97 -6.45,2.96 -4.59,4.07 -9.7,12.31 -15.34,24.79 -5.64,12.44 -8.67,23.17 -9.08,32.25 -0.16,3.5 0.3,5.99 1.38,7.54 1.07,1.54 2.32,2.32 3.69,2.32 2.96,0 6.04,-1.72 9.21,-5.12 4.53,-4.87 8.73,-10.83 12.51,-17.86 6.74,-12.34 10.33,-23.31 10.76,-32.89zm90.57 -20.12l-14.14 42.28c8.76,-12.34 15.3,-20.78 19.57,-25.32 6.28,-6.56 11.63,-11.04 16.07,-13.39 4.45,-2.39 8.57,-3.57 12.37,-3.57 3.43,0 6.3,1.28 8.61,3.8 2.31,2.53 3.41,5.82 3.22,9.89 -0.16,3.7 -1.17,8.18 -2.99,13.42l-14.49 42.08c-1.21,3.67 -1.86,6.06 -1.91,7.2 -0.03,0.64 0.22,1.25 0.66,1.75 0.49,0.54 0.98,0.81 1.52,0.81 0.64,0 1.35,-0.27 2.08,-0.81 2.41,-1.88 4.85,-4.57 7.36,-8.07 0.65,-0.91 1.65,-2.29 3.05,-4.14l3.66 2.29c-10.41,16.21 -20.9,24.32 -31.56,24.32 -4.07,0 -7.22,-1.05 -9.41,-3.17 -2.2,-2.08 -3.22,-4.7 -3.08,-7.87 0.12,-2.75 1.08,-6.86 2.9,-12.31l14.2 -42.08c0.96,-2.75 1.49,-4.81 1.55,-6.12 0.03,-0.7 -0.24,-1.34 -0.79,-1.91 -0.58,-0.58 -1.24,-0.85 -2.04,-0.85 -2.49,0 -5.6,1.72 -9.28,5.15 -9.47,8.65 -18.83,21.56 -28.07,38.72l-9.39 29.26 -25.12 0 21.26 -63.27c2.06,-6.22 3.14,-10.66 3.26,-13.29 0.05,-1.14 -0.18,-2.05 -0.65,-2.82 -0.51,-0.74 -1.32,-1.35 -2.48,-1.78 -1.19,-0.41 -3.4,-0.64 -6.7,-0.64l1.28 -3.74 33.46 -5.82 6.02 0zm126.08 -45.3l-31.35 93.2 23.47 -20.89 7.8 -6.69c2.29,-2.25 3.85,-4.14 4.8,-5.72 0.55,-1.01 0.86,-1.92 0.89,-2.76 0.06,-1.38 -0.52,-2.52 -1.79,-3.46 -1.27,-0.91 -4.44,-1.55 -9.47,-1.85l1.24 -3.77 40.1 0 -1.15 3.77c-4.79,1.11 -8.68,2.39 -11.71,3.83 -2.33,1.11 -5.24,2.96 -8.72,5.52 -5.15,3.87 -8.88,6.86 -11.13,8.95l-4.52 4.07 4.8 27.18c1.82,10.52 3.26,16.58 4.3,18.23 0.66,0.97 1.51,1.48 2.49,1.48 2.28,0 5.13,-2.7 8.53,-8.08 0.51,-0.74 1.16,-1.75 2.02,-3.06l3.54 2.26c-5.33,9.21 -11.19,16.21 -17.59,20.98 -4.29,3.23 -8.09,4.85 -11.46,4.85 -3.33,0 -6.06,-1.21 -8.21,-3.6 -2.11,-2.39 -4.08,-8.68 -5.85,-18.87l-3.94 -22.37 -11.26 9.65 -11.37 33.81 -25.13 0 37.71 -111.27c1.59,-4.71 2.41,-7.9 2.48,-9.55 0.07,-1.51 -0.18,-2.73 -0.81,-3.7 -0.6,-0.94 -1.47,-1.65 -2.63,-2.12 -1.12,-0.44 -3.4,-0.67 -6.8,-0.67l1.04 -3.67 33.76 -5.68 5.92 0z"/>
  <path class="fil0" d="M731.89 16.05l62.32 0c7.58,0 13.77,0.34 18.65,1 4.85,0.7 9.46,2.4 13.87,5.13 4.38,2.74 7.78,6.36 10.12,10.83 2.35,4.5 3.39,9.41 3.15,14.76 -0.3,6.84 -2.61,13.26 -6.87,19.33 -4.31,6.05 -10.92,10.42 -19.83,13.13l-0.01 0.38c14.25,4.37 21.03,13.84 20.38,28.48 -0.48,10.7 -5.35,20.4 -14.68,29.08 -9.3,8.72 -22.21,13.07 -38.77,13.07l-83.25 0 34.92 -135.19zm28.26 52.85l14.19 0c6.14,0 10.91,-0.45 14.29,-1.29 3.4,-0.89 6.19,-2.68 8.36,-5.42 2.2,-2.74 3.33,-5.48 3.45,-8.25 0.15,-3.3 -0.83,-5.88 -3.02,-7.74 -2.15,-1.86 -6.51,-2.77 -13.09,-2.77l-17.79 0 -6.39 25.47zm-13.75 53.28l22.31 0c15.74,0 23.84,-5.22 24.31,-15.67 0.17,-3.68 -0.84,-6.58 -3.01,-8.72 -2.17,-2.11 -6.78,-3.18 -13.8,-3.18l-22.66 0 -7.15 27.57zm250.61 -106.13l-8.41 33.2 -43.88 0 -26.63 101.99 -41.96 0 26.54 -101.99 -41.96 0 8.47 -33.2 127.83 0zm146.99 0l-35.11 135.19 -39.09 0 -29.97 -78.57 -0.38 0 -20.29 78.57 -39.28 0 35.1 -135.19 39.09 0 29.78 78.75 0.38 0 20.49 -78.75 39.28 0z"/>
  <path class="fil1" d="M1119.71 164.45c-34.71,1.39 -288.78,12.5 -333.21,19.44 -44.43,6.94 -73.58,6.94 -84.69,13.88 -11.11,6.94 -19.44,12.5 -5.55,24.99 13.88,12.5 22.21,12.5 34.71,15.27 12.49,2.78 23.6,4.17 38.87,-5.55 15.27,-9.72 34.71,-15.27 66.64,-23.6 93.02,-20.83 283.23,-44.43 283.23,-44.43z"/>
  <path class="fil2" d="M532.5 115.05l16.13 -10.15 0 19.39 -16.05 10.44 -0.24 -0.16 0.16 -19.52zm32.36 -20.36l16.02 -10.08 15.77 9.98 0 18.6 -15.09 -10.32 -16.7 10.86 0 -19.04zm47.49 9.83l16.39 10.37 0 20.26 -16.39 -11.22 0 -19.41zm30.6 19.36l1.06 0.67 -14.22 10.1 13.16 -10.77z"/>
  <path class="fil2" d="M564.86 134.35l15 -9.66 16.79 10.66 0 20.3 -16.11 -10.69 -15.73 11.03 -9.22 -6.37 9.27 6.26 0 -21.53zm47.49 10.97l0.31 0.2 -3 1.97 2.69 -1.79 0 -0.38z"/>
  <polygon class="fil0" points="517.4,124.55 517.4,42.31 580.92,0 643.06,41.39 643.06,123.78 628.74,135.52 628.74,54.06 581.9,20.38 533.02,52.5 532.34,134.73 "/>
  <polygon class="fil0" points="548.63,144.92 548.63,63.46 581.52,41.55 612.35,62.09 612.35,145.7 596.65,156.16 596.65,72.07 581.25,61.82 564.86,72.74 564.86,155.88 "/>
 </g>
</svg>
