<?xml version="1.0" encoding="UTF-8"?>
<!DOCTYPE svg PUBLIC "-//W3C//DTD SVG 1.1//EN" "http://www.w3.org/Graphics/SVG/1.1/DTD/svg11.dtd">
<!-- Creator: CorelDRAW X5 -->
<svg xmlns="http://www.w3.org/2000/svg" xml:space="preserve" width="135.467mm" height="34.6286mm" style="shape-rendering:geometricPrecision; text-rendering:geometricPrecision; image-rendering:optimizeQuality; fill-rule:evenodd; clip-rule:evenodd"
viewBox="0 0 13547 3463"
 xmlns:xlink="http://www.w3.org/1999/xlink"
 xmlns:svg="http://www.w3.org/2000/svg">
 <defs>
  <style type="text/css">
   <![CDATA[
    .fil1 {fill:#FDD100}
    .fil0 {fill:#EA5B24}
    .fil2 {fill:#F39910}
    .fil3 {fill:#007242;fill-rule:nonzero}
   ]]>
  </style>
 </defs>
 <g id="Layer_x0020_1">
  <metadata id="CorelCorpID_0Corel-Layer"/>
 </g>
 <g id="svg2">
  <metadata id="CorelCorpID_1Corel-Layer"/>
  <polygon class="fil0" points="0,0 4712,1041 0,1041 "/>
  <polygon class="fil1" points="2150,0 4712,1041 2150,1041 "/>
  <polygon class="fil2" points="13547,2987 4712,1041 13547,1041 "/>
  <polygon class="fil1" points="10071,2987 4712,1041 10071,1041 "/>
  <path class="fil3" d="M329 2249l0 972 140 0c103,0 174,-31 213,-93 39,-62 59,-193 59,-393 0,-200 -19,-331 -59,-393 -39,-62 -110,-93 -213,-93l-140 0zm-329 -213l512 0c200,0 340,52 421,155 81,103 121,286 121,548 0,261 -41,443 -121,547 -81,104 -222,155 -421,155l-512 0 0 -1405zm1275 681l0 -19c0,-85 36,-150 108,-194 72,-44 178,-66 317,-66 137,0 238,23 302,69 64,46 96,118 96,216l0 488c0,43 2,84 5,122 3,38 9,74 16,108l-269 0 -23 -112c-28,35 -68,64 -122,86 -54,22 -110,33 -170,33 -89,0 -160,-27 -212,-82 -52,-55 -78,-129 -78,-224 0,-110 38,-191 113,-244 76,-53 198,-84 366,-92l96 0 0 -45c0,-67 -9,-114 -28,-142 -19,-27 -50,-41 -93,-41 -48,0 -84,12 -108,35 -24,23 -36,58 -36,103l-281 0zm546 238c-109,0 -184,13 -225,40 -41,26 -62,73 -62,140 0,48 10,86 31,113 21,27 50,40 86,40 55,0 97,-21 126,-63 29,-42 44,-103 44,-182l0 -86zm809 486l-304 0 0 -804c0,-45 -1,-80 -2,-104 -1,-25 -4,-48 -7,-71l305 0 8 101c24,-41 57,-72 98,-93 41,-21 89,-32 144,-32 94,0 167,22 217,66 50,44 75,108 75,192l0 745 -304 0 0 -669c0,-64 -8,-107 -23,-131 -15,-24 -41,-36 -78,-36 -39,0 -71,13 -94,38 -23,25 -35,59 -35,101l0 696zm752 -724l0 -19c0,-85 36,-150 108,-194 72,-44 178,-66 317,-66 137,0 238,23 302,69 64,46 96,118 96,216l0 488c0,43 2,84 5,122 3,38 9,74 16,108l-269 0 -23 -112c-28,35 -68,64 -122,86 -53,22 -110,33 -170,33 -89,0 -160,-27 -212,-82 -52,-55 -78,-129 -78,-224 0,-110 38,-191 113,-244 76,-53 198,-84 366,-92l96 0 0 -45c0,-67 -9,-114 -28,-142 -19,-27 -50,-41 -93,-41 -48,0 -84,12 -108,35 -24,23 -36,58 -36,103l-281 0zm546 238c-109,0 -184,13 -225,40 -41,26 -62,73 -62,140 0,48 10,86 31,113 21,27 50,40 86,40 55,0 97,-21 126,-63 29,-42 44,-103 44,-182l0 -86zm809 -392c24,-41 57,-72 98,-93 41,-21 89,-32 144,-32 70,0 129,13 177,39 48,26 81,63 101,112 28,-50 64,-88 106,-113 43,-25 93,-38 150,-38 94,0 167,22 217,66 50,44 75,108 75,192l0 745 -304 0 0 -669c0,-65 -7,-109 -22,-132 -15,-23 -41,-35 -77,-35 -39,0 -71,13 -95,38 -24,25 -36,59 -36,101l0 696 -304 0 0 -669c0,-64 -8,-107 -23,-131 -15,-24 -41,-36 -78,-36 -39,0 -71,13 -94,38 -23,25 -35,59 -35,101l0 696 -304 0 0 -804c0,-45 -1,-80 -2,-104 -1,-25 -4,-48 -7,-71l305 0 8 101zm1714 -125c156,0 269,38 337,114 69,76 103,202 103,378 0,205 -33,345 -98,421 -65,75 -181,113 -348,113 -168,0 -284,-38 -350,-114 -66,-75 -98,-216 -98,-420 0,-177 35,-303 105,-379 70,-75 186,-113 349,-113zm-148 504c0,138 10,231 31,279 21,48 58,72 111,72 53,0 90,-24 111,-72 20,-48 31,-141 31,-279 0,-135 -10,-224 -31,-267 -21,-43 -59,-64 -113,-64 -53,0 -90,21 -110,65 -20,43 -30,132 -30,267zm1088 499l-304 0 0 -804c0,-45 -1,-80 -2,-104 -1,-25 -4,-48 -7,-71l305 0 8 101c24,-41 57,-72 98,-93 41,-21 89,-32 144,-32 94,0 167,22 217,66 50,44 75,108 75,192l0 745 -304 0 0 -669c0,-64 -8,-107 -23,-131 -15,-24 -41,-36 -78,-36 -39,0 -71,13 -94,38 -23,25 -35,59 -35,101l0 696z"/>
  <polygon class="fil0" points="10071,2222 4712,1041 10071,1041 "/>
  <polygon class="fil2" points="2150,475 4712,1041 2150,1041 "/>
 </g>
</svg>
